<?xml version="1.0" encoding="UTF-8" standalone="no"?><!DOCTYPE svg PUBLIC "-//W3C//DTD SVG 1.1//EN" "http://www.w3.org/Graphics/SVG/1.1/DTD/svg11.dtd"><svg width="100%" height="100%" viewBox="0 0 124 85" version="1.1" xmlns="http://www.w3.org/2000/svg" xmlns:xlink="http://www.w3.org/1999/xlink" xml:space="preserve" style="fill-rule:evenodd;clip-rule:evenodd;stroke-linejoin:round;stroke-miterlimit:1.41421;"><rect id="Artboard1" x="0" y="0" width="123.736" height="84.485" style="fill:none;"/><circle cx="31.803" cy="40.974" r="6.816" style="fill:#fff;"/><circle cx="98.762" cy="40.974" r="6.816" style="fill:#fff;"/><circle cx="36.433" cy="23.076" r="10.636" style="fill:#fff;"/><ellipse cx="19.167" cy="32.025" rx="7.306" ry="7.346" style="fill:#fff;"/><ellipse cx="86.126" cy="32.025" rx="7.306" ry="7.346" style="fill:#fff;"/><ellipse cx="47.151" cy="39.173" rx="7.306" ry="7.346" style="fill:#fff;"/><ellipse cx="52.668" cy="27.639" rx="4.637" ry="4.662" style="fill:#fff;"/><ellipse cx="33.402" cy="67.604" rx="4.637" ry="4.662" style="fill:#fff;"/><ellipse cx="100.178" cy="28.21" rx="4.637" ry="4.662" style="fill:#fff;"/><ellipse cx="108.058" cy="34.325" rx="2.648" ry="2.663" style="fill:#fff;"/><ellipse cx="110.666" cy="41.646" rx="3.428" ry="3.446" style="fill:#fff;"/><ellipse cx="14.054" cy="44.486" rx="4.371" ry="4.394" style="fill:#fff;"/><ellipse cx="81.013" cy="44.486" rx="4.371" ry="4.394" style="fill:#fff;"/><ellipse cx="21.591" cy="42.489" rx="2.024" ry="2.035" style="fill:#fff;"/><ellipse cx="88.551" cy="42.489" rx="2.024" ry="2.035" style="fill:#fff;"/><ellipse cx="61.275" cy="36.54" rx="5.576" ry="5.606" style="fill:#fff;"/><ellipse cx="58.717" cy="50.53" rx="7.306" ry="7.346" style="fill:#fff;"/><ellipse cx="42.488" cy="55.528" rx="8.892" ry="8.94" style="fill:#fff;"/><ellipse cx="106.178" cy="52.622" rx="5.623" ry="6.035" style="fill:#fff;"/><ellipse cx="23.106" cy="56.313" rx="9.385" ry="9.436" style="fill:#fff;"/><ellipse cx="90.065" cy="56.313" rx="9.385" ry="9.436" style="fill:#fff;"/></svg>