<?xml version="1.0" encoding="UTF-8" standalone="no"?><!DOCTYPE svg PUBLIC "-//W3C//DTD SVG 1.1//EN" "http://www.w3.org/Graphics/SVG/1.1/DTD/svg11.dtd"><svg width="100%" height="100%" viewBox="0 0 124 85" version="1.1" xmlns="http://www.w3.org/2000/svg" xmlns:xlink="http://www.w3.org/1999/xlink" xml:space="preserve" style="fill-rule:evenodd;clip-rule:evenodd;stroke-linejoin:round;stroke-miterlimit:1.41421;"><rect id="Artboard1" x="0" y="0" width="123.736" height="84.485" style="fill:none;"/><path d="M42.423,53.852l4.653,2.559l-2.658,6.167l-2.662,0.458l-0.404,2.414l-5.451,5.274l-2.526,5.418l1.859,2.264l-3.049,-0.906l-1.072,-3.013l3.057,-14l-2.528,-2.559l-1.188,-5.415l1.429,-2.649l-1.305,0.222l-1.855,-2.703l-1.598,-0.903l-3.723,-1.508l-3.063,-5.418l-1.858,-3.913l0,-5.274l-3.057,-5.869l-3.861,-2.713l-2.393,1.505l-4.387,2.415l2.789,-2.559l-1.731,-0.454l-0.656,-2.559l1.991,-1.809l-1.991,-0.298l0.393,-1.656l1.465,0l-1.329,-2.26l3.589,-2.415l6.517,4.07l2.401,-2.558l5.181,3.461l9.973,-1.213l0,5.725l-3.988,0.9l-0.8,2.418c2.46,1.747 2.873,3.158 3.858,4.662l0.93,-0.15l0.66,-5.87l2.537,-0.147l1.055,3.304l1.332,-0.899l2.924,7.384l-4.121,2.097l-3.19,1.963l-2.526,3.916l0,1.96l-0.933,0.147l-0.659,-2.107l-3.592,0.599l-0.798,2.556l0.928,1.508l1.326,-1.211l1.332,0.148l-0.246,1.911l1.174,0.365l0.535,2.255l1.074,0.404l0.792,-1.464l5.321,0.602l3.583,3.013l0.54,2.408Zm62.99,-1.342l-0.288,2.552l-1.908,-0.79l0.352,-1.376l-2.094,-0.198l-2.711,2.86l-2.878,1.182l0.698,4.427l-0.266,0.887l1.055,0.687l4.268,-1.195l1.656,1.095l0.784,-0.489l0.521,1.784l2.174,0.696l1.573,-1.095l0.867,-5.311l-2.363,-2.668l-1.44,-3.048Zm-10.571,-2.474l2.263,0.489l1.047,-3.643l-0.615,-0.599l-3.05,2.173l0.355,1.58Zm6.965,-0.994l2.354,2.766l1.349,0.1l0.568,-0.589l1.916,1.373l-0.783,-1.875l-3.576,-1.966l-1.828,0.191Zm4.274,-22.39l-0.612,0l-0.086,3.549l-1.568,3.753l-2.005,1.675l-0.086,1.48l3.659,-2.465l0.174,-2.568l1.213,-1.276l-0.955,-0.881l0.52,-2.079l-0.254,-1.188Zm9.419,35.813l0.26,2.756l-2.7,2.866l1.742,0.198l1.559,-2.672l1.219,-1.869l-0.784,-0.097l-1.296,-1.182Zm-58.265,-41.52l0,2.875l1.764,-0.874l0.499,-0.878l-1.909,-4.158l-1.127,0.887l0.069,1.11l-1.06,1.449l-0.072,1.511l1.274,0l0.562,-1.922Zm15.941,33.848l-0.069,3.201l1.135,0.558l1.125,-3.835l-0.288,-1.605l-1.903,1.681Zm39.186,-33.478l0.086,2.273l-2.266,3.161l-0.086,-3.556l2.958,-4.048l-1.822,0.305l-2.36,2.166l-2.88,-0.194l-2.174,2.37l1.565,1.279l-1.825,5.723l-1.565,0.304l-0.964,1.577l0.432,2.073l-1.13,0.683l-0.352,-1.872l-0.963,-1.486l-1.308,1.571l1.045,3.352l-1.477,3.066l-3.229,0.195l-0.692,1.285l1.476,2.465l-1.565,1.483l-1.606,-1.891l-0.058,1.781l1.401,1.781l0.612,3.154l1.748,0.703l2.359,1.084l-4.359,-0.884l-1.833,-1.972l-1.651,-2.671l2.254,1.285l-1.044,-2.16l-0.213,-2.951l-0.997,0.286l-1.219,-2.954l-3.403,2.668l0,1.69l-1.222,1.374l-1.559,-4.44l-1.739,-2.371l-4.188,-0.887l-1.215,-1.176l-0.615,0.392l0.867,2.371l1.39,-0.791l1.833,1.578l-5.397,3.649l-2.798,-6.214l-0.584,0.116l2.85,7.381l2.789,-1.483l-0.867,3.458l-2.792,2.853l0.432,4.246l-1.567,1.376l-2.867,6.118l-2.88,0.592l-2.526,-6.907l0.615,-3.155l-1.57,-5.534l-5.318,0.392l-2.969,-3.254l0.526,-5.328l2.878,-3.947l5.575,-1.085l0.352,1.671l2.268,1.675l0.867,-1.377l3.462,1.003l0.894,-0.611l0.396,-1.474l-2.39,-0.454l-0.772,-1.512l-0.563,-0.326l-0.493,1.916l-1.066,-1.521l0.069,-1.273l-1.423,-1.276l-0.845,-0.48l0.072,1.28l1.767,1.357l-0.919,1.204l-1.266,-1.918l-0.917,-1.205l-2.118,1.205l-1.482,2.636l-2.257,-0.398l-0.142,-3.195l2.114,0.026l-0.136,-1.465l-0.568,-1.367l2.188,-0.803l1.199,-1.831l0.989,-0.085l-0.213,-1.034l0.634,-0.963l0.496,1.596l2.75,0.079l0.772,-2.242l1.067,0.404l-0.358,-1.514l1.64,-0.593l-0.51,-0.683l-1.484,0.47l-0.521,-1.433l-0.063,-0.009l0.044,-0.101l-0.216,-0.602l0.595,-0.48l0.521,-1.501l-0.551,-0.094l-0.92,1.279l-0.772,1.909l0.855,1.035l-0.855,2.559l-1.272,0.561l-0.7,-2.552l-1.485,0.959l-0.703,-0.477l0.066,-2.477l1.274,-1.11l1.061,-2.956l2.684,-1.672l6.696,1.393c2.818,-0.335 5.164,-2.098 7.365,-2.605c3.834,-0.883 6.657,-0.514 6.657,-0.514l30.844,4.213l0.87,2.762l-3.143,1.979l-2.382,0.564Zm-39.671,10.002l-3.666,-2.157l-1.128,2.236l0.493,1.031l2.125,-0.395l1.553,0.48l0.623,-1.195Zm3.872,2.709l-0.343,-2.474l-0.712,-1.197l0.856,-0.402l0,-1.194l-2.191,1.357l0.77,2.239l-0.346,1.515l1.966,0.156Zm-31.597,-19.405l-1.964,-0.612l-2.429,2.938l3.122,9.203l1.476,0.414l0.116,-2.991l1,-0.696l0.058,-1.135l1.03,-2.192l-0.72,-1.653l-1.689,-3.276Z" style="fill:#fff;fill-rule:nonzero;"/></svg>